<?xml version="1.0" standalone="no"?>
<!DOCTYPE svg PUBLIC "-//W3C//DTD SVG 20010904//EN"
 "http://www.w3.org/TR/2001/REC-SVG-20010904/DTD/svg10.dtd">
<svg version="1.0" xmlns="http://www.w3.org/2000/svg"
 width="512.000000pt" height="512.000000pt" viewBox="0 0 512.000000 512.000000"
 preserveAspectRatio="xMidYMid meet">
<metadata>
Created by potrace 1.11, written by Peter Selinger 2001-2013
</metadata>
<g transform="translate(0.000000,512.000000) scale(0.100000,-0.100000)"
fill="#000000" stroke="none">
<path d="M2250 4634 c-47 -29 -98 -62 -115 -73 -16 -10 -158 -99 -315 -196
-157 -98 -301 -188 -320 -200 -19 -13 -127 -80 -240 -150 -284 -177 -314 -196
-368 -230 -26 -17 -93 -59 -149 -94 l-103 -63 0 -346 c0 -191 -1 -815 -3
-1387 l-2 -1040 -97 0 c-53 -1 -100 -4 -104 -8 -4 -4 -8 -98 -8 -208 -1 -181
1 -202 16 -208 13 -4 4222 -7 4248 -2 4 1 5 319 1 406 -1 19 -8 20 -106 19
l-105 -1 0 961 0 961 -185 115 c-102 63 -240 150 -307 192 -68 42 -141 88
-163 101 -103 61 -321 201 -330 211 -6 6 -16 12 -23 14 -16 3 -96 54 -100 65
-2 4 -8 7 -12 7 -8 0 -289 172 -450 274 -100 64 -120 76 -128 76 -5 0 -9 -642
-10 -1467 0 -808 -1 -1477 -1 -1488 -1 -20 -7 -21 -210 -21 l-209 -1 -4 26
c-1 14 -3 878 -2 1919 0 1040 -2 1892 -5 1891 -3 0 -44 -25 -91 -55z m-347
-1223 c16 -1 17 -18 17 -213 l0 -213 -408 2 c-224 0 -416 2 -427 2 -19 1 -20
8 -20 211 0 202 1 209 20 212 17 3 770 2 818 -1z m17 -1064 l-1 -214 -426 1
-427 1 -1 200 c0 110 1 206 3 213 3 9 98 12 428 12 l424 0 0 -213z m2132 8 c0
-110 -1 -205 -1 -211 -1 -7 -129 -11 -426 -11 l-425 1 0 213 0 213 427 -2 426
-3 -1 -200z m-2132 -862 l0 -213 -427 3 -427 2 1 185 c1 102 2 197 2 211 l1
25 425 0 425 0 0 -213z m2131 203 c1 -14 1 -399 0 -408 -1 -5 -192 -8 -426 -8
l-425 0 0 213 0 213 425 0 c295 0 425 -3 426 -10z"/>
</g>
</svg>
